<svg xmlns="http://www.w3.org/2000/svg" version="1.1" xmlns:xlink="http://www.w3.org/1999/xlink" xmlns:svgjs="http://svgjs.dev/svgjs" width="1440" height="560" preserveAspectRatio="none" viewBox="0 0 1440 560"><g mask="url(&quot;#SvgjsMask1002&quot;)" fill="none"><path d="M6.81 -43.94L71.76 -6.44L71.76 68.56L6.81 106.06L-58.14 68.56L-58.14 -6.44zM6.81 181.06L71.76 218.56L71.76 293.56L6.81 331.06L-58.14 293.56L-58.14 218.56zM6.81 406.06L71.76 443.56L71.76 518.56L6.81 556.06L-58.14 518.56L-58.14 443.56zM136.72 181.06L201.67 218.56L201.67 293.56L136.72 331.06L71.76 293.56L71.76 218.56zM201.67 293.56L266.63 331.06L266.63 406.06L201.67 443.56L136.72 406.06L136.72 331.06zM201.67 518.56L266.63 556.06L266.63 631.06L201.67 668.56L136.72 631.06L136.72 556.06zM266.63 -43.94L331.58 -6.44L331.58 68.56L266.63 106.06L201.67 68.56L201.67 -6.44zM266.63 181.06L331.58 218.56L331.58 293.56L266.63 331.06L201.67 293.56L201.67 218.56zM331.58 293.56L396.53 331.06L396.53 406.06L331.58 443.56L266.63 406.06L266.63 331.06zM331.58 518.56L396.53 556.06L396.53 631.06L331.58 668.56L266.63 631.06L266.63 556.06zM396.53 181.06L461.49 218.56L461.49 293.56L396.53 331.06L331.58 293.56L331.58 218.56zM396.53 406.06L461.49 443.56L461.49 518.56L396.53 556.06L331.58 518.56L331.58 443.56zM526.44 181.06L591.39 218.56L591.39 293.56L526.44 331.06L461.49 293.56L461.49 218.56zM656.35 181.06L721.3 218.56L721.3 293.56L656.35 331.06L591.39 293.56L591.39 218.56zM851.21 68.56L916.16 106.06L916.16 181.06L851.21 218.56L786.25 181.06L786.25 106.06zM851.21 518.56L916.16 556.06L916.16 631.06L851.21 668.56L786.25 631.06L786.25 556.06zM981.12 518.56L1046.07 556.06L1046.07 631.06L981.12 668.56L916.16 631.06L916.16 556.06zM1111.02 68.56L1175.98 106.06L1175.98 181.06L1111.02 218.56L1046.07 181.06L1046.07 106.06zM1111.02 293.56L1175.98 331.06L1175.98 406.06L1111.02 443.56L1046.07 406.06L1046.07 331.06zM1175.98 -43.94L1240.93 -6.44L1240.93 68.56L1175.98 106.06L1111.02 68.56L1111.02 -6.44zM1240.93 518.56L1305.88 556.06L1305.88 631.06L1240.93 668.56L1175.98 631.06L1175.98 556.06zM1305.88 -43.94L1370.84 -6.44L1370.84 68.56L1305.88 106.06L1240.93 68.56L1240.93 -6.44zM1370.84 293.56L1435.79 331.06L1435.79 406.06L1370.84 443.56L1305.88 406.06L1305.88 331.06zM1435.79 181.06L1500.75 218.56L1500.75 293.56L1435.79 331.06L1370.84 293.56L1370.84 218.56zM1500.75 518.56L1565.7 556.06L1565.7 631.06L1500.75 668.56L1435.79 631.06L1435.79 556.06z" stroke="rgba(77, 77, 173, 1)" stroke-width="2"></path><path d="M-0.69 -43.94 a7.5 7.5 0 1 0 15 0 a7.5 7.5 0 1 0 -15 0zM64.26 -6.44 a7.5 7.5 0 1 0 15 0 a7.5 7.5 0 1 0 -15 0zM64.26 68.56 a7.5 7.5 0 1 0 15 0 a7.5 7.5 0 1 0 -15 0zM-0.69 106.06 a7.5 7.5 0 1 0 15 0 a7.5 7.5 0 1 0 -15 0zM-65.64 68.56 a7.5 7.5 0 1 0 15 0 a7.5 7.5 0 1 0 -15 0zM-65.64 -6.44 a7.5 7.5 0 1 0 15 0 a7.5 7.5 0 1 0 -15 0zM-0.69 181.06 a7.5 7.5 0 1 0 15 0 a7.5 7.5 0 1 0 -15 0zM64.26 218.56 a7.5 7.5 0 1 0 15 0 a7.5 7.5 0 1 0 -15 0zM64.26 293.56 a7.5 7.5 0 1 0 15 0 a7.5 7.5 0 1 0 -15 0zM-0.69 331.06 a7.5 7.5 0 1 0 15 0 a7.5 7.5 0 1 0 -15 0zM-65.64 293.56 a7.5 7.5 0 1 0 15 0 a7.5 7.5 0 1 0 -15 0zM-65.64 218.56 a7.5 7.5 0 1 0 15 0 a7.5 7.5 0 1 0 -15 0zM-0.69 406.06 a7.5 7.5 0 1 0 15 0 a7.5 7.5 0 1 0 -15 0zM64.26 443.56 a7.5 7.5 0 1 0 15 0 a7.5 7.5 0 1 0 -15 0zM64.26 518.56 a7.5 7.5 0 1 0 15 0 a7.5 7.5 0 1 0 -15 0zM-0.69 556.06 a7.5 7.5 0 1 0 15 0 a7.5 7.5 0 1 0 -15 0zM-65.64 518.56 a7.5 7.5 0 1 0 15 0 a7.5 7.5 0 1 0 -15 0zM-65.64 443.56 a7.5 7.5 0 1 0 15 0 a7.5 7.5 0 1 0 -15 0zM129.22 181.06 a7.5 7.5 0 1 0 15 0 a7.5 7.5 0 1 0 -15 0zM194.17 218.56 a7.5 7.5 0 1 0 15 0 a7.5 7.5 0 1 0 -15 0zM194.17 293.56 a7.5 7.5 0 1 0 15 0 a7.5 7.5 0 1 0 -15 0zM129.22 331.06 a7.5 7.5 0 1 0 15 0 a7.5 7.5 0 1 0 -15 0zM259.13 331.06 a7.5 7.5 0 1 0 15 0 a7.5 7.5 0 1 0 -15 0zM259.13 406.06 a7.5 7.5 0 1 0 15 0 a7.5 7.5 0 1 0 -15 0zM194.17 443.56 a7.5 7.5 0 1 0 15 0 a7.5 7.5 0 1 0 -15 0zM129.22 406.06 a7.5 7.5 0 1 0 15 0 a7.5 7.5 0 1 0 -15 0zM194.17 518.56 a7.5 7.5 0 1 0 15 0 a7.5 7.5 0 1 0 -15 0zM259.13 556.06 a7.5 7.5 0 1 0 15 0 a7.5 7.5 0 1 0 -15 0zM259.13 631.06 a7.5 7.5 0 1 0 15 0 a7.5 7.5 0 1 0 -15 0zM194.17 668.56 a7.5 7.5 0 1 0 15 0 a7.5 7.5 0 1 0 -15 0zM129.22 631.06 a7.5 7.5 0 1 0 15 0 a7.5 7.5 0 1 0 -15 0zM129.22 556.06 a7.5 7.5 0 1 0 15 0 a7.5 7.5 0 1 0 -15 0zM259.13 -43.94 a7.5 7.5 0 1 0 15 0 a7.5 7.5 0 1 0 -15 0zM324.08 -6.44 a7.5 7.5 0 1 0 15 0 a7.5 7.5 0 1 0 -15 0zM324.08 68.56 a7.5 7.5 0 1 0 15 0 a7.5 7.5 0 1 0 -15 0zM259.13 106.06 a7.5 7.5 0 1 0 15 0 a7.5 7.5 0 1 0 -15 0zM194.17 68.56 a7.5 7.5 0 1 0 15 0 a7.5 7.5 0 1 0 -15 0zM194.17 -6.44 a7.5 7.5 0 1 0 15 0 a7.5 7.5 0 1 0 -15 0zM259.13 181.06 a7.5 7.5 0 1 0 15 0 a7.5 7.5 0 1 0 -15 0zM324.08 218.56 a7.5 7.5 0 1 0 15 0 a7.5 7.5 0 1 0 -15 0zM324.08 293.56 a7.5 7.5 0 1 0 15 0 a7.5 7.5 0 1 0 -15 0zM389.03 331.06 a7.5 7.5 0 1 0 15 0 a7.5 7.5 0 1 0 -15 0zM389.03 406.06 a7.5 7.5 0 1 0 15 0 a7.5 7.5 0 1 0 -15 0zM324.08 443.56 a7.5 7.5 0 1 0 15 0 a7.5 7.5 0 1 0 -15 0zM324.08 518.56 a7.5 7.5 0 1 0 15 0 a7.5 7.5 0 1 0 -15 0zM389.03 556.06 a7.5 7.5 0 1 0 15 0 a7.5 7.5 0 1 0 -15 0zM389.03 631.06 a7.5 7.5 0 1 0 15 0 a7.5 7.5 0 1 0 -15 0zM324.08 668.56 a7.5 7.5 0 1 0 15 0 a7.5 7.5 0 1 0 -15 0zM389.03 181.06 a7.5 7.5 0 1 0 15 0 a7.5 7.5 0 1 0 -15 0zM453.99 218.56 a7.5 7.5 0 1 0 15 0 a7.5 7.5 0 1 0 -15 0zM453.99 293.56 a7.5 7.5 0 1 0 15 0 a7.5 7.5 0 1 0 -15 0zM453.99 443.56 a7.5 7.5 0 1 0 15 0 a7.5 7.5 0 1 0 -15 0zM453.99 518.56 a7.5 7.5 0 1 0 15 0 a7.5 7.5 0 1 0 -15 0zM518.94 181.06 a7.5 7.5 0 1 0 15 0 a7.5 7.5 0 1 0 -15 0zM583.89 218.56 a7.5 7.5 0 1 0 15 0 a7.5 7.5 0 1 0 -15 0zM583.89 293.56 a7.5 7.5 0 1 0 15 0 a7.5 7.5 0 1 0 -15 0zM518.94 331.06 a7.5 7.5 0 1 0 15 0 a7.5 7.5 0 1 0 -15 0zM648.85 181.06 a7.5 7.5 0 1 0 15 0 a7.5 7.5 0 1 0 -15 0zM713.8 218.56 a7.5 7.5 0 1 0 15 0 a7.5 7.5 0 1 0 -15 0zM713.8 293.56 a7.5 7.5 0 1 0 15 0 a7.5 7.5 0 1 0 -15 0zM648.85 331.06 a7.5 7.5 0 1 0 15 0 a7.5 7.5 0 1 0 -15 0zM843.71 68.56 a7.5 7.5 0 1 0 15 0 a7.5 7.5 0 1 0 -15 0zM908.66 106.06 a7.5 7.5 0 1 0 15 0 a7.5 7.5 0 1 0 -15 0zM908.66 181.06 a7.5 7.5 0 1 0 15 0 a7.5 7.5 0 1 0 -15 0zM843.71 218.56 a7.5 7.5 0 1 0 15 0 a7.5 7.5 0 1 0 -15 0zM778.75 181.06 a7.5 7.5 0 1 0 15 0 a7.5 7.5 0 1 0 -15 0zM778.75 106.06 a7.5 7.5 0 1 0 15 0 a7.5 7.5 0 1 0 -15 0zM843.71 518.56 a7.5 7.5 0 1 0 15 0 a7.5 7.5 0 1 0 -15 0zM908.66 556.06 a7.5 7.5 0 1 0 15 0 a7.5 7.5 0 1 0 -15 0zM908.66 631.06 a7.5 7.5 0 1 0 15 0 a7.5 7.5 0 1 0 -15 0zM843.71 668.56 a7.5 7.5 0 1 0 15 0 a7.5 7.5 0 1 0 -15 0zM778.75 631.06 a7.5 7.5 0 1 0 15 0 a7.5 7.5 0 1 0 -15 0zM778.75 556.06 a7.5 7.5 0 1 0 15 0 a7.5 7.5 0 1 0 -15 0zM973.62 518.56 a7.5 7.5 0 1 0 15 0 a7.5 7.5 0 1 0 -15 0zM1038.57 556.06 a7.5 7.5 0 1 0 15 0 a7.5 7.5 0 1 0 -15 0zM1038.57 631.06 a7.5 7.5 0 1 0 15 0 a7.5 7.5 0 1 0 -15 0zM973.62 668.56 a7.5 7.5 0 1 0 15 0 a7.5 7.5 0 1 0 -15 0zM1103.52 68.56 a7.5 7.5 0 1 0 15 0 a7.5 7.5 0 1 0 -15 0zM1168.48 106.06 a7.5 7.5 0 1 0 15 0 a7.5 7.5 0 1 0 -15 0zM1168.48 181.06 a7.5 7.5 0 1 0 15 0 a7.5 7.5 0 1 0 -15 0zM1103.52 218.56 a7.5 7.5 0 1 0 15 0 a7.5 7.5 0 1 0 -15 0zM1038.57 181.06 a7.5 7.5 0 1 0 15 0 a7.5 7.5 0 1 0 -15 0zM1038.57 106.06 a7.5 7.5 0 1 0 15 0 a7.5 7.5 0 1 0 -15 0zM1103.52 293.56 a7.5 7.5 0 1 0 15 0 a7.5 7.5 0 1 0 -15 0zM1168.48 331.06 a7.5 7.5 0 1 0 15 0 a7.5 7.5 0 1 0 -15 0zM1168.48 406.06 a7.5 7.5 0 1 0 15 0 a7.5 7.5 0 1 0 -15 0zM1103.52 443.56 a7.5 7.5 0 1 0 15 0 a7.5 7.5 0 1 0 -15 0zM1038.57 406.06 a7.5 7.5 0 1 0 15 0 a7.5 7.5 0 1 0 -15 0zM1038.57 331.06 a7.5 7.5 0 1 0 15 0 a7.5 7.5 0 1 0 -15 0zM1168.48 -43.94 a7.5 7.5 0 1 0 15 0 a7.5 7.5 0 1 0 -15 0zM1233.43 -6.44 a7.5 7.5 0 1 0 15 0 a7.5 7.5 0 1 0 -15 0zM1233.43 68.56 a7.5 7.5 0 1 0 15 0 a7.5 7.5 0 1 0 -15 0zM1103.52 -6.44 a7.5 7.5 0 1 0 15 0 a7.5 7.5 0 1 0 -15 0zM1233.43 518.56 a7.5 7.5 0 1 0 15 0 a7.5 7.5 0 1 0 -15 0zM1298.38 556.06 a7.5 7.5 0 1 0 15 0 a7.5 7.5 0 1 0 -15 0zM1298.38 631.06 a7.5 7.5 0 1 0 15 0 a7.5 7.5 0 1 0 -15 0zM1233.43 668.56 a7.5 7.5 0 1 0 15 0 a7.5 7.5 0 1 0 -15 0zM1168.48 631.06 a7.5 7.5 0 1 0 15 0 a7.5 7.5 0 1 0 -15 0zM1168.48 556.06 a7.5 7.5 0 1 0 15 0 a7.5 7.5 0 1 0 -15 0zM1298.38 -43.94 a7.5 7.5 0 1 0 15 0 a7.5 7.5 0 1 0 -15 0zM1363.34 -6.44 a7.5 7.5 0 1 0 15 0 a7.5 7.5 0 1 0 -15 0zM1363.34 68.56 a7.5 7.5 0 1 0 15 0 a7.5 7.5 0 1 0 -15 0zM1298.38 106.06 a7.5 7.5 0 1 0 15 0 a7.5 7.5 0 1 0 -15 0zM1363.34 293.56 a7.5 7.5 0 1 0 15 0 a7.5 7.5 0 1 0 -15 0zM1428.29 331.06 a7.5 7.5 0 1 0 15 0 a7.5 7.5 0 1 0 -15 0zM1428.29 406.06 a7.5 7.5 0 1 0 15 0 a7.5 7.5 0 1 0 -15 0zM1363.34 443.56 a7.5 7.5 0 1 0 15 0 a7.5 7.5 0 1 0 -15 0zM1298.38 406.06 a7.5 7.5 0 1 0 15 0 a7.5 7.5 0 1 0 -15 0zM1298.38 331.06 a7.5 7.5 0 1 0 15 0 a7.5 7.5 0 1 0 -15 0zM1428.29 181.06 a7.5 7.5 0 1 0 15 0 a7.5 7.5 0 1 0 -15 0zM1493.25 218.56 a7.5 7.5 0 1 0 15 0 a7.5 7.5 0 1 0 -15 0zM1493.25 293.56 a7.5 7.5 0 1 0 15 0 a7.5 7.5 0 1 0 -15 0zM1363.34 218.56 a7.5 7.5 0 1 0 15 0 a7.5 7.5 0 1 0 -15 0zM1493.25 518.56 a7.5 7.5 0 1 0 15 0 a7.5 7.5 0 1 0 -15 0zM1558.2 556.06 a7.5 7.5 0 1 0 15 0 a7.5 7.5 0 1 0 -15 0zM1558.2 631.06 a7.5 7.5 0 1 0 15 0 a7.5 7.5 0 1 0 -15 0zM1493.25 668.56 a7.5 7.5 0 1 0 15 0 a7.5 7.5 0 1 0 -15 0zM1428.29 631.06 a7.5 7.5 0 1 0 15 0 a7.5 7.5 0 1 0 -15 0zM1428.29 556.06 a7.5 7.5 0 1 0 15 0 a7.5 7.5 0 1 0 -15 0z" fill="rgba(77, 77, 173, 1)"></path><path d="M137.61 49.16L180.91 74.16L180.91 124.16L137.61 149.16L94.31 124.16L94.31 74.16zM137.61 199.16L180.91 224.16L180.91 274.16L137.61 299.16L94.31 274.16L94.31 224.16zM94.31 424.16L137.61 449.16L137.61 499.16L94.31 524.16L51 499.16L51 449.16zM180.91 -25.84L224.21 -0.84L224.21 49.16L180.91 74.16L137.61 49.16L137.61 -0.84zM267.51 -25.84L310.82 -0.84L310.82 49.16L267.51 74.16L224.21 49.16L224.21 -0.84zM397.42 199.16L440.73 224.16L440.73 274.16L397.42 299.16L354.12 274.16L354.12 224.16zM440.73 124.16L484.03 149.16L484.03 199.16L440.73 224.16L397.42 199.16L397.42 149.16zM440.73 274.16L484.03 299.16L484.03 349.16L440.73 374.16L397.42 349.16L397.42 299.16zM657.24 199.16L700.54 224.16L700.54 274.16L657.24 299.16L613.94 274.16L613.94 224.16zM613.94 274.16L657.24 299.16L657.24 349.16L613.94 374.16L570.63 349.16L570.63 299.16zM830.45 499.16L873.75 524.16L873.75 574.16L830.45 599.16L787.15 574.16L787.15 524.16zM873.75 -25.84L917.05 -0.84L917.05 49.16L873.75 74.16L830.45 49.16L830.45 -0.84zM873.75 274.16L917.05 299.16L917.05 349.16L873.75 374.16L830.45 349.16L830.45 299.16zM917.05 349.16L960.36 374.16L960.36 424.16L917.05 449.16L873.75 424.16L873.75 374.16zM1046.96 274.16L1090.26 299.16L1090.26 349.16L1046.96 374.16L1003.66 349.16L1003.66 299.16zM1090.26 499.16L1133.57 524.16L1133.57 574.16L1090.26 599.16L1046.96 574.16L1046.96 524.16zM1133.57 -25.84L1176.87 -0.84L1176.87 49.16L1133.57 74.16L1090.26 49.16L1090.26 -0.84zM1220.17 -25.84L1263.47 -0.84L1263.47 49.16L1220.17 74.16L1176.87 49.16L1176.87 -0.84zM1220.17 124.16L1263.47 149.16L1263.47 199.16L1220.17 224.16L1176.87 199.16L1176.87 149.16zM1220.17 274.16L1263.47 299.16L1263.47 349.16L1220.17 374.16L1176.87 349.16L1176.87 299.16zM1436.68 499.16L1479.99 524.16L1479.99 574.16L1436.68 599.16L1393.38 574.16L1393.38 524.16z" stroke="rgba(6, 80, 156, 0.93)" stroke-width="2"></path></g><defs><mask id="SvgjsMask1002"><rect width="1440" height="560" fill="#ffffff"></rect></mask></defs></svg>